<svg width="20" height="19" viewBox="0 0 20 19" fill="none" xmlns="http://www.w3.org/2000/svg">
<path d="M6.96247 0.299744L5.55427 3.531H0.408203V4.33803V18.0575H19.9972V3.531H14.8593L13.421 0.299744H6.96247ZM7.82652 1.9138H12.5652L14.0034 5.14506H18.5972V16.4434H1.8082V5.14506H6.41833L7.82652 1.9138ZM10.2328 6.77802C8.30807 6.77802 6.73278 8.59416 6.73278 10.8132C6.73278 13.0322 8.30807 14.8483 10.2328 14.8483C12.1575 14.8483 13.7327 13.0322 13.7327 10.8132C13.7327 8.59416 12.1575 6.77802 10.2328 6.77802ZM10.2328 8.39208C11.4008 8.39208 12.3327 9.46655 12.3327 10.8132C12.3327 12.1598 11.4008 13.2342 10.2328 13.2342C9.06468 13.2342 8.13277 12.1598 8.13277 10.8132C8.13277 9.46655 9.06468 8.39208 10.2328 8.39208Z" fill="white"/>
</svg>
